<svg width="147" height="35" viewBox="0 0 147 35" fill="none" xmlns="http://www.w3.org/2000/svg">
<path d="M129.891 15.7539L126.802 20.3964L129.444 24.0779L135.277 15.7539H129.891Z" fill="#11100A"/>
<path d="M46.959 4.20703C45.6629 4.20703 44.6909 4.95563 44.1546 5.77686C43.6518 4.64279 42.6071 4.20703 41.4395 4.20703C40.2328 4.20703 39.2607 4.77128 38.5959 5.74334H38.5624V4.46401H36.1546L35.8306 15.7545C35.8306 15.7545 36.6183 14.788 37.0931 14.4863C37.6239 14.1511 38.6741 13.8551 38.6741 13.8551L38.7021 8.43048C38.7021 6.58133 39.9255 6.25731 40.4283 6.25731C42.0484 6.25731 41.9758 7.51987 41.9758 8.61484V13.5981C44.6183 13.5813 44.4283 13.5757 44.4283 13.5366L44.5289 8.64836C44.5289 7.45842 44.797 6.25172 46.2384 6.25172C47.6965 6.25172 47.8026 7.29641 47.8026 8.55339V14.0897C47.8026 14.0897 48.5624 14.3858 49.0987 14.978C49.6797 15.6204 50.0484 15.9277 50.0484 15.9277L50.3557 7.58132C50.3557 5.13999 48.9367 4.20703 46.959 4.20703Z" fill="#11100A"/>
<path d="M55.9885 4.20703C53.0723 4.20703 51.1841 6.17909 51.1841 9.19584C51.1841 12.1958 53.0723 14.1679 55.9885 14.1679C58.9215 14.1679 60.8098 12.1958 60.8098 9.19584C60.8098 6.18468 58.9215 4.20703 55.9885 4.20703ZM55.9885 12.2182C54.2623 12.2182 53.7427 10.6986 53.7427 9.20143C53.7427 7.68188 54.2623 6.16792 55.9885 6.16792C57.7316 6.16792 58.2567 7.68747 58.2567 9.20143C58.2567 10.6986 57.7316 12.2182 55.9885 12.2182Z" fill="#11100A"/>
<path d="M67.0884 4.20671C65.9376 4.20671 64.7867 4.64805 64.1554 5.61453H64.1219V0.860352H61.5688L61.7476 13.7821C62.9655 13.7542 63.5241 14.1452 63.9599 14.4134L63.999 12.7039H64.0325C64.5912 13.7486 65.7253 14.1676 67.0884 14.1676C68.9431 14.1676 70.9375 12.648 70.9375 9.17877C70.9375 5.72626 68.9375 4.20671 67.0884 4.20671ZM66.2057 12.2179C64.6973 12.2179 64.0269 10.7709 64.0269 9.20111C64.0269 7.60894 64.6917 6.1676 66.2057 6.1676C67.7141 6.1676 68.3845 7.61452 68.3845 9.20111C68.3789 10.7709 67.7141 12.2179 66.2057 12.2179Z" fill="#11100A"/>
<path d="M74.5291 0.866211H71.9761V3.00587H74.5291V0.866211Z" fill="#11100A"/>
<path d="M71.8594 14.0728H74.351L74.5298 4.46387H71.9767L71.8594 14.0728Z" fill="#11100A"/>
<path d="M75.5806 15.7544C75.5806 15.7544 76.1951 14.9276 76.8431 14.4863C77.5415 14.0114 78.2733 13.9165 78.2733 13.9165V0.866211H75.7202L75.5806 15.7544Z" fill="#11100A"/>
<path d="M83.4336 4.20703C80.6068 4.20703 78.6851 6.36345 78.6851 9.19584C78.6851 12.1232 80.5007 14.1679 83.4336 14.1679C85.5398 14.1679 87.0649 13.2182 87.7856 10.9891H85.5398C85.3778 11.5757 84.551 12.2126 83.523 12.2126C82.104 12.2126 81.3107 11.464 81.2381 9.81596H87.9476C88.132 6.91652 86.6012 4.20703 83.4336 4.20703ZM81.2437 8.1735C81.2772 7.44166 81.7465 6.16233 83.3666 6.16233C84.6068 6.16233 85.1655 6.85507 85.4001 8.1735H81.2437Z" fill="#11100A"/>
<path d="M35.3115 28.692C35.5182 33.3735 39.5015 34.9098 43.5908 34.9098C47.6132 34.9098 51.6299 33.407 51.6299 28.759C51.6299 25.4797 48.8701 24.4518 46.0433 23.8037C43.2836 23.1557 40.5573 22.9154 40.5573 21.1724C40.5573 19.7367 42.1607 19.53 43.25 19.53C44.9875 19.53 46.4176 20.0439 46.5573 21.921H51.1551C50.7808 17.5803 47.2389 16.2842 43.3841 16.2842C39.602 16.2842 35.7193 17.4462 35.7193 21.9546C35.7193 25.0663 38.5126 26.0551 41.3059 26.6696C44.7808 27.4238 46.7919 27.9322 46.7919 29.4015C46.7919 31.111 45.021 31.6584 43.6243 31.6584C41.7137 31.6584 39.9428 30.8037 39.9093 28.6864H35.3115V28.692Z" fill="#F10600"/>
<path d="M69.4503 26.7758C69.7911 21.34 66.8972 16.2842 60.8972 16.2842C55.5453 16.2842 51.9028 20.3177 51.9028 25.6138C51.9028 31.083 55.3442 34.9098 60.8972 34.9098C64.886 34.9098 67.7799 33.1333 69.143 28.9657H64.886C64.5788 30.0607 63.0145 31.2562 61.0704 31.2562C58.3777 31.2562 56.8805 29.854 56.7408 26.7814H69.4503V26.7758ZM56.7408 23.7032C56.8078 22.3344 57.6961 19.9434 60.7631 19.9434C63.1151 19.9434 64.171 21.2395 64.6123 23.7032H56.7408Z" fill="#F10600"/>
<path d="M70.6138 34.4294H75.4517V25.1724C75.4517 21.5858 76.5746 20.1166 79.2003 20.1166C81.4517 20.1166 82.3009 21.5523 82.3009 24.4573V34.435H87.1389V23.5635C87.1389 19.1892 85.8428 16.2842 80.6975 16.2842C78.6529 16.2842 76.5411 17.2395 75.3121 19.2227H75.2115V16.7646H70.6138V34.4294Z" fill="#F10600"/>
<path d="M95.2497 11.4688H90.4118V16.7648L85.2051 16.4743C85.6576 16.2788 88.0319 19.776 87.4844 20.0106H90.4174V30.4352C90.4174 33.9547 93.0095 34.6363 95.9704 34.6363C96.9257 34.6363 97.9816 34.6028 98.7972 34.4631V30.6698C98.2888 30.7704 97.8084 30.8039 97.3 30.8039C95.6631 30.8039 95.2553 30.3961 95.2553 28.7536V20.0106H98.6855V16.7648H95.2553V11.4688H95.2497Z" fill="#F10600"/>
<path d="M99.4062 34.4294H104.244V26.4685C104.244 23.3568 105.473 20.7982 109.015 20.7982C109.596 20.7982 109.68 20.8652 110.127 20.9713V16.9546C109.82 16.854 110.038 16.7814 109.697 16.7814C107.345 16.7814 104.959 18.3177 104.077 20.5412H104.01V16.7646H99.4118V34.4294H99.4062Z" fill="#F10600"/>
<path d="M111.093 34.4294H115.931L115.697 18.3401L111.093 16.7646V34.4294Z" fill="#F10600"/>
<path d="M127.914 24.9099L125.272 21.2283L122.283 16.7646H117.037L122.423 25.0104L116.043 34.368H121.501L125.205 28.759L128.909 34.368H134.467L127.914 24.9099Z" fill="#F10600"/>
<path d="M115.697 11.4688H111.093V15.1894L115.697 16.7648V11.4688Z" fill="#F10600"/>
<path d="M28.9111 0H27.291V34.9887H28.9111V0Z" fill="black"/>
<path d="M2.80931 11.5312C3.45177 10.9447 4.1892 10.4586 5.01601 10.0731V5.61505C5.01601 4.8888 5.11098 4.34132 5.29534 3.9726C5.63612 3.33014 6.30651 3.00612 7.30092 3.00612C8.15567 3.00612 8.73108 3.33014 9.02717 3.9726C9.18918 4.33014 9.27298 4.90556 9.27298 5.69885V9.02287C9.70315 8.98935 10.1445 8.97259 10.6026 8.97259C11.3624 8.97259 12.0942 9.01169 12.7869 9.08991V5.70444C12.7869 5.10668 12.8819 4.5983 13.0663 4.17372C13.435 3.37484 14.0998 2.9726 15.0607 2.9726C15.8931 2.9726 16.4629 3.28545 16.7758 3.90556C16.9378 4.22958 17.0216 4.64858 17.0216 5.15696V10.2016C17.4573 10.4028 17.8763 10.6262 18.2674 10.872C19.2338 11.4865 20.0104 12.3078 20.597 13.3301L20.6193 5.24075C20.6193 4.37484 20.5802 3.71562 20.4964 3.26869C20.3679 2.59272 20.1109 2.0173 19.7366 1.55361C19.273 0.983783 18.7534 0.581549 18.1836 0.3525C17.6137 0.12345 17.0327 0.0117188 16.4461 0.0117188C15.5635 0.0117188 14.7646 0.196076 14.0439 0.56479C13.3679 0.933504 12.7981 1.50892 12.34 2.29104C12.0774 1.63741 11.6976 1.1011 11.1892 0.687695C10.5579 0.240768 9.73667 0.0117188 8.71433 0.0117188C7.63612 0.0117188 6.75902 0.274288 6.08305 0.793839C5.69757 1.08993 5.28975 1.58155 4.85959 2.27428V0.324567H1.47412V13.0284C1.84842 12.5033 2.29535 12.0005 2.80931 11.5312Z" fill="black"/>
<path d="M6.30166 26.587C6.43574 27.6932 6.72065 28.4809 7.1564 28.9445C7.93294 29.7769 9.3631 30.1904 11.4581 30.1904C12.6871 30.1904 13.6648 30.006 14.3854 29.6429C15.1117 29.2797 15.4692 28.7323 15.4692 28.006C15.4692 27.3077 15.1787 26.777 14.5921 26.4138C14.0111 26.0507 11.838 25.425 8.08378 24.5367C5.37987 23.8663 3.47485 23.0284 2.36871 22.0228C1.26257 21.034 0.709496 19.6038 0.709496 17.7435C0.709496 15.5479 1.57541 13.6541 3.30167 12.0787C5.02792 10.4977 7.46367 9.70996 10.5977 9.70996C13.5754 9.70996 16 10.3021 17.8715 11.4921C19.7486 12.6764 20.8212 14.7267 21.1005 17.6373H14.8882C14.7988 16.8384 14.5754 16.2016 14.2123 15.7379C13.5251 14.8943 12.3575 14.4697 10.7095 14.4697C9.35193 14.4697 8.38545 14.682 7.81004 15.101C7.23462 15.5256 6.94411 16.0172 6.94411 16.587C6.94411 17.3021 7.25138 17.8161 7.8659 18.1401C8.48042 18.4753 10.6424 19.0507 14.3631 19.8664C16.8435 20.4474 18.7039 21.33 19.9385 22.5088C21.162 23.7043 21.7709 25.196 21.7709 26.9837C21.7709 29.3412 20.8938 31.2686 19.134 32.7602C17.3743 34.2518 14.6592 35.0004 10.9832 35.0004C7.23462 35.0004 4.46367 34.2127 2.68156 32.6317C0.893852 31.0507 0 29.0395 0 26.5926H6.30166V26.587Z" fill="#F10600"/>
<path d="M139.321 20.5209C139.321 20.0702 139.431 19.6594 139.65 19.2884C139.87 18.9174 140.166 18.622 140.537 18.4021C140.908 18.1823 141.318 18.0724 141.769 18.0724C142.159 18.0724 142.519 18.1562 142.849 18.3238C143.182 18.4914 143.456 18.7209 143.674 19.0122C143.891 19.3007 144.025 19.6277 144.078 19.9932H143.08C143.025 19.7102 142.872 19.4794 142.622 19.3007C142.372 19.1194 142.088 19.0287 141.769 19.0287C141.494 19.0287 141.244 19.096 141.019 19.2307C140.794 19.3653 140.614 19.5453 140.479 19.7706C140.344 19.996 140.277 20.2461 140.277 20.5209C140.277 20.7957 140.344 21.0457 140.479 21.2711C140.614 21.4964 140.794 21.6764 141.019 21.8111C141.244 21.9457 141.494 22.013 141.769 22.013C142.088 22.013 142.357 21.9237 142.577 21.7451C142.8 21.5637 142.94 21.3315 142.998 21.0485H143.995C143.943 21.414 143.815 21.7424 143.612 22.0337C143.408 22.3222 143.147 22.5503 142.829 22.7179C142.513 22.8855 142.159 22.9694 141.769 22.9694C141.318 22.9694 140.908 22.8594 140.537 22.6396C140.166 22.4198 139.87 22.1243 139.65 21.7534C139.431 21.3824 139.321 20.9715 139.321 20.5209ZM141.728 24.8738C141.129 24.8738 140.566 24.7611 140.038 24.5357C139.513 24.3104 139.05 23.9985 138.649 23.6C138.25 23.1988 137.937 22.7358 137.709 22.2109C137.484 21.686 137.372 21.1227 137.375 20.5209C137.378 19.919 137.492 19.3557 137.717 18.8308C137.945 18.3059 138.259 17.8443 138.657 17.4458C139.055 17.0446 139.517 16.7313 140.042 16.506C140.567 16.2806 141.129 16.168 141.728 16.168C142.33 16.168 142.893 16.2806 143.418 16.506C143.946 16.7313 144.407 17.0446 144.803 17.4458C145.201 17.8443 145.513 18.3059 145.739 18.8308C145.964 19.3557 146.078 19.919 146.081 20.5209C146.084 21.1227 145.972 21.686 145.747 22.2109C145.522 22.7358 145.21 23.1988 144.811 23.6C144.413 23.9985 143.95 24.3104 143.422 24.5357C142.894 24.7611 142.33 24.8738 141.728 24.8738ZM141.728 23.9174C142.198 23.9174 142.639 23.8295 143.051 23.6536C143.463 23.4777 143.825 23.2345 144.135 22.924C144.446 22.6135 144.689 22.2535 144.865 21.844C145.041 21.4318 145.127 20.9921 145.125 20.525C145.122 20.0551 145.032 19.614 144.857 19.2018C144.681 18.7896 144.438 18.4282 144.127 18.1177C143.816 17.8072 143.456 17.564 143.047 17.3881C142.638 17.2122 142.198 17.1243 141.728 17.1243C141.261 17.1243 140.822 17.2122 140.413 17.3881C140.004 17.564 139.644 17.8085 139.333 18.1218C139.022 18.4324 138.778 18.7937 138.599 19.2059C138.423 19.6154 138.334 20.0551 138.331 20.525C138.329 20.9894 138.415 21.4277 138.591 21.8399C138.767 22.2494 139.01 22.6094 139.321 22.9199C139.634 23.2304 139.995 23.475 140.405 23.6536C140.817 23.8295 141.258 23.9174 141.728 23.9174Z" fill="black"/>
</svg>
